<?xml version="1.0" encoding="UTF-8" standalone="no"?>
<!-- Created with Inkscape (http://www.inkscape.org/) -->

<svg
   xmlns:dc="http://purl.org/dc/elements/1.1/"
   xmlns:cc="http://creativecommons.org/ns#"
   xmlns:rdf="http://www.w3.org/1999/02/22-rdf-syntax-ns#"
   xmlns:svg="http://www.w3.org/2000/svg"
   xmlns="http://www.w3.org/2000/svg"
   xmlns:sodipodi="http://sodipodi.sourceforge.net/DTD/sodipodi-0.dtd"
   xmlns:inkscape="http://www.inkscape.org/namespaces/inkscape"
   width="109.19424mm"
   height="92.530083mm"
   viewBox="0 0 109.19423 92.530085"
   version="1.1"
   id="svg4401"
   inkscape:version="0.92.5 (2060ec1f9f, 2020-04-08)"
   sodipodi:docname="icon9.svg">
  <defs
     id="defs4395" />
  <sodipodi:namedview
     id="base"
     pagecolor="#ffffff"
     bordercolor="#666666"
     borderopacity="1.0"
     inkscape:pageopacity="0.0"
     inkscape:pageshadow="2"
     inkscape:zoom="0.35"
     inkscape:cx="304.97229"
     inkscape:cy="7.3116111"
     inkscape:document-units="mm"
     inkscape:current-layer="layer1"
     showgrid="false"
     inkscape:window-width="1294"
     inkscape:window-height="704"
     inkscape:window-x="72"
     inkscape:window-y="27"
     inkscape:window-maximized="1" />
  <metadata
     id="metadata4398">
    <rdf:RDF>
      <cc:Work
         rdf:about="">
        <dc:format>image/svg+xml</dc:format>
        <dc:type
           rdf:resource="http://purl.org/dc/dcmitype/StillImage" />
        <dc:title></dc:title>
      </cc:Work>
    </rdf:RDF>
  </metadata>
  <g
     inkscape:label="Layer 1"
     inkscape:groupmode="layer"
     id="layer1"
     transform="translate(-25.142751,-58.237793)">
    <g
       transform="matrix(0.35277777,0,0,-0.35277777,-33.346745,382.77923)"
       id="g4337">
      <path
         d="m 322.75,704.23 3.647,6.94 c 0,0 -4.294,1.24 -5.837,1.24 -1.543,0 -5.835,-1.24 -5.835,-1.24 l 3.647,-6.94 -4.742,-16.77 6.93,-15.32 6.931,15.32 -4.741,16.77"
         style="fill:#50ace4;fill-opacity:1;fill-rule:nonzero;stroke:none;stroke-width:0.1"
         id="path3928"
         inkscape:connector-curvature="0" />
      <path
         d="m 362.261,699.25 c 0,2.01 -1.599,4.02 -3.555,4.46 l -23.684,5.44 -14.462,-35.19 -14.462,35.19 -23.684,-5.44 c -1.955,-0.44 -3.554,-2.45 -3.554,-4.46 l -7.294,-37.93 c 0,-2.01 1.64,-3.65 3.646,-3.65 h 90.697 c 2.006,0 3.646,1.64 3.646,3.65 l -7.294,37.93"
         style="fill:#211c1d;fill-opacity:1;fill-rule:nonzero;stroke:none;stroke-width:0.1"
         id="path3930"
         inkscape:connector-curvature="0" />
      <path
         d="m 339.712,747.99 c 0,-10.58 -4.964,-29.79 -19.152,-29.79 -13.477,0 -19.152,19.21 -19.152,29.79 0,10.58 8.574,19.15 19.152,19.15 10.578,0 19.152,-8.57 19.152,-19.15"
         style="fill:#211c1d;fill-opacity:1;fill-rule:nonzero;stroke:none;stroke-width:0.1"
         id="path3932"
         inkscape:connector-curvature="0" />
      <path
         d="m 216.98,857.05 3.647,6.93 c 0,0 -4.292,1.24 -5.835,1.24 -1.543,0 -5.836,-1.24 -5.836,-1.24 l 3.648,-6.93 -4.742,-16.78 6.93,-15.31 6.93,15.31 -4.742,16.78"
         style="fill:#be1c2d;fill-opacity:1;fill-rule:nonzero;stroke:none;stroke-width:0.1"
         id="path3934"
         inkscape:connector-curvature="0" />
      <path
         d="m 256.493,852.06 c 0,2.01 -1.6,4.02 -3.555,4.47 l -23.684,5.43 -14.462,-35.18 -14.462,35.18 -23.684,-5.43 c -1.956,-0.45 -3.554,-2.46 -3.554,-4.47 l -7.295,-37.93 c 0,-2 1.641,-3.64 3.647,-3.64 h 90.696 c 2.006,0 3.647,1.64 3.647,3.64 l -7.294,37.93"
         style="fill:#211c1d;fill-opacity:1;fill-rule:nonzero;stroke:none;stroke-width:0.1"
         id="path3936"
         inkscape:connector-curvature="0" />
      <path
         d="m 233.944,900.8 c 0,-10.58 -4.965,-29.79 -19.152,-29.79 -13.478,0 -19.153,19.21 -19.153,29.79 0,10.58 8.575,19.16 19.153,19.16 10.578,0 19.152,-8.58 19.152,-19.16"
         style="fill:#211c1d;fill-opacity:1;fill-rule:nonzero;stroke:none;stroke-width:0.1"
         id="path3938"
         inkscape:connector-curvature="0" />
      <path
         d="m 428.519,857.05 3.646,6.93 c 0,0 -4.293,1.24 -5.836,1.24 -1.543,0 -5.835,-1.24 -5.835,-1.24 l 3.647,-6.93 -4.742,-16.78 6.93,-15.31 6.93,15.31 -4.74,16.78"
         style="fill:#35b43f;fill-opacity:1;fill-rule:nonzero;stroke:none;stroke-width:0.1"
         id="path3940"
         inkscape:connector-curvature="0" />
      <path
         d="m 468.029,852.06 c 0,2.01 -1.599,4.02 -3.555,4.47 l -23.682,5.43 -14.463,-35.18 -14.461,35.18 -23.684,-5.43 c -1.956,-0.45 -3.557,-2.46 -3.557,-4.47 l -7.293,-37.93 c 0,-2 1.642,-3.64 3.647,-3.64 h 90.695 c 2.008,0 3.648,1.64 3.648,3.64 l -7.295,37.93"
         style="fill:#211c1d;fill-opacity:1;fill-rule:nonzero;stroke:none;stroke-width:0.1"
         id="path3942"
         inkscape:connector-curvature="0" />
      <path
         d="m 445.48,900.8 c 0,-10.58 -4.964,-29.79 -19.151,-29.79 -13.477,0 -19.152,19.21 -19.152,29.79 0,10.58 8.574,19.16 19.152,19.16 10.577,0 19.151,-8.58 19.151,-19.16"
         style="fill:#211c1d;fill-opacity:1;fill-rule:nonzero;stroke:none;stroke-width:0.1"
         id="path3944"
         inkscape:connector-curvature="0" />
      <path
         d="m 378.75,891.54 c -17.649,10.02 -37.77,15.31 -58.19,15.31 -12.948,0 -25.777,-2.14 -37.935,-6.26 -0.08,0.4 -0.141,0.79 -0.159,1.16 l -0.472,9.67 c -0.118,2.4 -1.435,2.82 -2.926,0.94 l -18.219,-23.05 c -1.492,-1.89 -0.745,-3.48 1.659,-3.54 l 29.37,-0.75 c 2.403,-0.06 2.922,1.22 1.152,2.85 l -7.037,6.46 c 11.103,3.64 22.782,5.53 34.567,5.53 19.211,0 38.138,-4.98 54.736,-14.41 0.545,-0.31 1.139,-0.45 1.724,-0.45 1.217,0 2.401,0.63 3.044,1.77 0.954,1.68 0.365,3.81 -1.314,4.77"
         style="fill:#65686d;fill-opacity:1;fill-rule:nonzero;stroke:none;stroke-width:0.1"
         id="path3946"
         inkscape:connector-curvature="0" />
      <path
         d="m 253.928,696.4 -8.35,28.17 c -0.682,2.3 -2.062,2.4 -3.063,0.22 l -4.034,-8.81 c -0.176,-0.39 -0.418,-0.78 -0.685,-1.17 -16.527,18.53 -26.579,42.3 -28.079,67.23 -0.115,1.93 -1.78,3.4 -3.7,3.28 -1.928,-0.12 -3.398,-1.78 -3.281,-3.7 1.588,-26.4 12.194,-51.58 29.639,-71.24 l -8.859,-3.36 c -2.248,-0.85 -2.243,-2.23 0.011,-3.07 l 27.545,-10.22 c 2.253,-0.84 3.538,0.36 2.856,2.67"
         style="fill:#65686d;fill-opacity:1;fill-rule:nonzero;stroke:none;stroke-width:0.1"
         id="path3948"
         inkscape:connector-curvature="0" />
      <path
         d="m 445.417,754.35 -8.219,28.2 c -0.673,2.31 -2.406,2.63 -3.85,0.7 l -17.63,-23.5 c -1.445,-1.92 -0.7,-3.09 1.652,-2.59 l 9.473,2.02 c 0.25,0.05 0.52,0.08 0.795,0.11 -6.242,-22.74 -19.603,-42.94 -38.432,-57.77 -1.518,-1.19 -1.779,-3.39 -0.584,-4.91 0.69,-0.88 1.714,-1.33 2.75,-1.33 0.757,0 1.52,0.24 2.161,0.75 20.138,15.86 34.39,37.5 40.972,61.86 0.097,-0.05 0.206,-0.1 0.297,-0.16 l 8.156,-5.22 c 2.025,-1.3 3.132,-0.47 2.459,1.84"
         style="fill:#65686d;fill-opacity:1;fill-rule:nonzero;stroke:none;stroke-width:0.1"
         id="path3950"
         inkscape:connector-curvature="0" />
    </g>
  </g>
</svg>
