<?xml version="1.0" encoding="UTF-8" standalone="no"?>
<!-- Created with Inkscape (http://www.inkscape.org/) -->

<svg
   xmlns:dc="http://purl.org/dc/elements/1.1/"
   xmlns:cc="http://creativecommons.org/ns#"
   xmlns:rdf="http://www.w3.org/1999/02/22-rdf-syntax-ns#"
   xmlns:svg="http://www.w3.org/2000/svg"
   xmlns="http://www.w3.org/2000/svg"
   xmlns:sodipodi="http://sodipodi.sourceforge.net/DTD/sodipodi-0.dtd"
   xmlns:inkscape="http://www.inkscape.org/namespaces/inkscape"
   width="133.71371mm"
   height="82.380669mm"
   viewBox="0 0 133.7137 82.380668"
   version="1.1"
   id="svg4401"
   inkscape:version="0.92.5 (2060ec1f9f, 2020-04-08)"
   sodipodi:docname="icon6.svg">
  <defs
     id="defs4395" />
  <sodipodi:namedview
     id="base"
     pagecolor="#ffffff"
     bordercolor="#666666"
     borderopacity="1.0"
     inkscape:pageopacity="0.0"
     inkscape:pageshadow="2"
     inkscape:zoom="0.35"
     inkscape:cx="434.1698"
     inkscape:cy="-67.936779"
     inkscape:document-units="mm"
     inkscape:current-layer="layer1"
     showgrid="false"
     inkscape:window-width="1294"
     inkscape:window-height="704"
     inkscape:window-x="72"
     inkscape:window-y="27"
     inkscape:window-maximized="1" />
  <metadata
     id="metadata4398">
    <rdf:RDF>
      <cc:Work
         rdf:about="">
        <dc:format>image/svg+xml</dc:format>
        <dc:type
           rdf:resource="http://purl.org/dc/dcmitype/StillImage" />
        <dc:title></dc:title>
      </cc:Work>
    </rdf:RDF>
  </metadata>
  <g
     inkscape:label="Layer 1"
     inkscape:groupmode="layer"
     id="layer1"
     transform="translate(9.0407573,-48.477737)">
    <g
       transform="matrix(0.35277777,0,0,-0.35277777,-214.6407,513.72106)"
       id="g4314">
      <path
         d="m 658.231,1153.9 5.375,10.21 c 0,0 -6.325,1.83 -8.599,1.83 -2.275,0 -8.601,-1.83 -8.601,-1.83 l 5.375,-10.21 -6.988,-24.72 10.214,-22.58 10.212,22.58 -6.988,24.72"
         style="fill:#50ace4;fill-opacity:1;fill-rule:nonzero;stroke:none;stroke-width:0.1"
         id="path3810"
         inkscape:connector-curvature="0" />
      <path
         d="m 716.46,1146.56 c 0,2.95 -2.357,5.91 -5.239,6.57 l -34.902,8.01 -21.312,-51.85 -21.314,51.85 -34.902,-8.01 c -2.881,-0.66 -5.236,-3.62 -5.236,-6.57 l -10.752,-55.9 c 0,-2.96 2.419,-5.38 5.375,-5.38 h 133.656 c 2.956,0 5.376,2.42 5.376,5.38 l -10.75,55.9"
         style="fill:#211c1d;fill-opacity:1;fill-rule:nonzero;stroke:none;stroke-width:0.1"
         id="path3812"
         inkscape:connector-curvature="0" />
      <path
         d="m 683.23,1218.38 c 0,-15.59 -7.316,-43.91 -28.223,-43.91 -19.862,0 -28.225,28.32 -28.225,43.91 0,15.59 12.637,28.22 28.225,28.22 15.589,0 28.223,-12.63 28.223,-28.22"
         style="fill:#211c1d;fill-opacity:1;fill-rule:nonzero;stroke:none;stroke-width:0.1"
         id="path3814"
         inkscape:connector-curvature="0" />
      <path
         d="m 892.855,1153.9 5.375,10.21 c 0,0 -6.325,1.83 -8.598,1.83 -2.275,0 -8.601,-1.83 -8.601,-1.83 l 5.375,-10.21 -6.988,-24.72 10.214,-22.58 10.213,22.58 -6.99,24.72"
         style="fill:#be1c2d;fill-opacity:1;fill-rule:nonzero;stroke:none;stroke-width:0.1"
         id="path3816"
         inkscape:connector-curvature="0" />
      <path
         d="m 951.084,1146.56 c 0,2.95 -2.357,5.91 -5.238,6.57 l -34.903,8.01 -21.311,-51.85 -21.314,51.85 -34.902,-8.01 c -2.881,-0.66 -5.237,-3.62 -5.237,-6.57 l -10.751,-55.9 c 0,-2.96 2.418,-5.38 5.374,-5.38 H 956.46 c 2.956,0 5.374,2.42 5.374,5.38 l -10.75,55.9"
         style="fill:#211c1d;fill-opacity:1;fill-rule:nonzero;stroke:none;stroke-width:0.1"
         id="path3818"
         inkscape:connector-curvature="0" />
      <path
         d="m 917.855,1218.38 c 0,-15.59 -7.317,-43.91 -28.223,-43.91 -19.863,0 -28.226,28.32 -28.226,43.91 0,15.59 12.637,28.22 28.226,28.22 15.587,0 28.223,-12.63 28.223,-28.22"
         style="fill:#211c1d;fill-opacity:1;fill-rule:nonzero;stroke:none;stroke-width:0.1"
         id="path3820"
         inkscape:connector-curvature="0" />
      <path
         d="m 700.621,1311.81 c -0.474,0 -0.874,-0.4 -0.874,-0.88 v -57.71 c 0,-0.47 0.4,-0.87 0.874,-0.87 h 11.915 c 1.932,0 3.498,-1.57 3.498,-3.5 v -10.87 l 17.576,13.64 c 0.614,0.47 1.369,0.73 2.145,0.73 h 55.033 c 0.474,0 0.874,0.4 0.874,0.87 v 57.71 c 0,0.48 -0.4,0.88 -0.874,0.88 z m 11.914,-84.47 c -0.523,0 -1.049,0.12 -1.537,0.35 -1.199,0.59 -1.96,1.81 -1.96,3.15 v 14.51 h -8.417 c -4.338,0 -7.868,3.54 -7.868,7.87 v 57.71 c 0,4.34 3.53,7.87 7.868,7.87 h 90.167 c 4.338,0 7.87,-3.53 7.87,-7.87 v -57.71 c 0,-4.33 -3.532,-7.87 -7.87,-7.87 h -53.836 l -22.272,-17.28 c -0.625,-0.48 -1.382,-0.73 -2.145,-0.73"
         style="fill:#211c1d;fill-opacity:1;fill-rule:nonzero;stroke:none;stroke-width:0.1"
         id="path3822"
         inkscape:connector-curvature="0" />
      <path
         d="m 813.852,1273.34 h 27.21 c 0.474,0 0.875,-0.4 0.875,-0.88 v -57.71 c 0,-0.47 -0.401,-0.87 -0.875,-0.87 h -11.915 c -1.931,0 -3.497,-1.57 -3.497,-3.5 v -8.45 l -9.042,10.71 c -0.665,0.79 -1.642,1.24 -2.672,1.24 h -63.04 c -0.474,0 -0.875,0.4 -0.875,0.87 v 18.8 h -6.995 v -18.8 c 0,-4.33 3.53,-7.86 7.87,-7.86 h 61.415 l 14.164,-16.78 c 0.678,-0.8 1.663,-1.24 2.673,-1.24 0.402,0 0.808,0.07 1.201,0.21 1.38,0.51 2.297,1.82 2.297,3.29 v 14.52 h 8.416 c 4.338,0 7.869,3.53 7.869,7.86 v 57.71 c 0,4.34 -3.531,7.87 -7.869,7.87 h -27.21 v -6.99"
         style="fill:#65686d;fill-opacity:1;fill-rule:nonzero;stroke:none;stroke-width:0.1"
         id="path3824"
         inkscape:connector-curvature="0" />
      <path
         d="m 743.026,1264.15 v 8.31 c 0,4.34 3.53,7.87 7.87,7.87 h 27.107 v -6.99 h -27.107 c -0.474,0 -0.875,-0.4 -0.875,-0.88 v -8.31 h -6.995"
         style="fill:#65686d;fill-opacity:1;fill-rule:nonzero;stroke:none;stroke-width:0.1"
         id="path3826"
         inkscape:connector-curvature="0" />
    </g>
  </g>
</svg>
