<?xml version="1.0" encoding="UTF-8" standalone="no"?>
<!-- Created with Inkscape (http://www.inkscape.org/) -->

<svg
   xmlns:dc="http://purl.org/dc/elements/1.1/"
   xmlns:cc="http://creativecommons.org/ns#"
   xmlns:rdf="http://www.w3.org/1999/02/22-rdf-syntax-ns#"
   xmlns:svg="http://www.w3.org/2000/svg"
   xmlns="http://www.w3.org/2000/svg"
   xmlns:sodipodi="http://sodipodi.sourceforge.net/DTD/sodipodi-0.dtd"
   xmlns:inkscape="http://www.inkscape.org/namespaces/inkscape"
   width="90.987579mm"
   height="96.710487mm"
   viewBox="0 0 90.987582 96.710486"
   version="1.1"
   id="svg4401"
   inkscape:version="0.92.5 (2060ec1f9f, 2020-04-08)"
   sodipodi:docname="icon14.svg">
  <defs
     id="defs4395" />
  <sodipodi:namedview
     id="base"
     pagecolor="#ffffff"
     bordercolor="#666666"
     borderopacity="1.0"
     inkscape:pageopacity="0.0"
     inkscape:pageshadow="2"
     inkscape:zoom="0.35"
     inkscape:cx="-285.17537"
     inkscape:cy="324.20191"
     inkscape:document-units="mm"
     inkscape:current-layer="layer1"
     showgrid="false"
     inkscape:window-width="1294"
     inkscape:window-height="704"
     inkscape:window-x="72"
     inkscape:window-y="27"
     inkscape:window-maximized="1" />
  <metadata
     id="metadata4398">
    <rdf:RDF>
      <cc:Work
         rdf:about="">
        <dc:format>image/svg+xml</dc:format>
        <dc:type
           rdf:resource="http://purl.org/dc/dcmitype/StillImage" />
        <dc:title></dc:title>
      </cc:Work>
    </rdf:RDF>
  </metadata>
  <g
     inkscape:label="Layer 1"
     inkscape:groupmode="layer"
     id="layer1"
     transform="translate(-181.28599,-137.90127)">
    <g
       transform="matrix(0.35277777,0,0,-0.35277777,-368.82449,312.85478)"
       id="g4372">
      <g
         id="g4020"
         transform="scale(0.103605)">
        <path
           d="m 16209.1,3579.85 70,133 c 0,0 -82.4,23.85 -112,23.85 -29.6,0 -112,-23.85 -112,-23.85 l 70,-133 -91,-245.84 133,-293.9 132.9,293.9 -90.9,245.84"
           style="fill:#50ace4;fill-opacity:1;fill-rule:nonzero;stroke:none"
           id="path4022"
           inkscape:connector-curvature="0" />
      </g>
      <g
         id="g4024"
         transform="scale(0.108416)">
        <path
           d="m 15486,2779.85 c 0,0 88.1,17.62 88.1,-73.79 V 2456.1 l 725.9,313.14 -85.8,560.44 c 0,36.71 -29.3,73.6 -65.2,81.81 l -434.2,99.62 -265.1,-546.97 -265.2,546.97 -434.2,-99.62 c -35.9,-8.21 -65.2,-45.1 -65.2,-81.81 l -133.7,-873.58 c 0,-5.63 0.8,-11.17 2.1,-16.33 l 932.5,340.08"
           style="fill:#211c1d;fill-opacity:1;fill-rule:nonzero;stroke:none"
           id="path4026"
           inkscape:connector-curvature="0" />
      </g>
      <g
         id="g4028"
         transform="scale(0.105096)">
        <path
           d="m 16300,4356.6 c 0,-200.01 -93.9,-563.48 -362.2,-563.48 -255,0 -362.3,363.47 -362.3,563.48 0,200.11 162.2,362.24 362.3,362.24 200,0 362.2,-162.13 362.2,-362.24"
           style="fill:#211c1d;fill-opacity:1;fill-rule:nonzero;stroke:none"
           id="path4030"
           inkscape:connector-curvature="0" />
      </g>
      <g
         id="g4032"
         transform="scale(0.111542)">
        <path
           d="m 16267.4,2674.87 -308.7,16.95 c -25.3,1.34 -31.1,-12.01 -12.9,-29.68 l 53.1,-51.72 -978.8,-433.12 V 2452 c 0,24.65 -12.2,47.6 -32.4,61.5 -20.4,13.9 -46.2,16.86 -69.2,7.89 l -938.4,-365.6 54.1,-138.79 836.9,326.07 v -280.16 c 0,-25.2 12.8,-48.68 33.9,-62.4 12.3,-7.98 26.4,-12.1 40.6,-12.1 10.2,0 20.5,2.15 30.1,6.36 l 1077.7,476.86 1.1,-60.6 c 0.6,-25.2 14.3,-30.13 30.5,-10.67 l 198.8,236.77 c 16.2,19.37 8.8,36.31 -16.4,37.74"
           style="fill:#35b43f;fill-opacity:1;fill-rule:nonzero;stroke:none"
           id="path4034"
           inkscape:connector-curvature="0" />
      </g>
    </g>
  </g>
</svg>
