<?xml version="1.0" encoding="UTF-8" standalone="no"?>
<!-- Created with Inkscape (http://www.inkscape.org/) -->

<svg
   xmlns:dc="http://purl.org/dc/elements/1.1/"
   xmlns:cc="http://creativecommons.org/ns#"
   xmlns:rdf="http://www.w3.org/1999/02/22-rdf-syntax-ns#"
   xmlns:svg="http://www.w3.org/2000/svg"
   xmlns="http://www.w3.org/2000/svg"
   xmlns:sodipodi="http://sodipodi.sourceforge.net/DTD/sodipodi-0.dtd"
   xmlns:inkscape="http://www.inkscape.org/namespaces/inkscape"
   width="91.854515mm"
   height="76.760918mm"
   viewBox="0 0 91.854513 76.760918"
   version="1.1"
   id="svg4401"
   inkscape:version="0.92.5 (2060ec1f9f, 2020-04-08)"
   sodipodi:docname="icon11.svg">
  <defs
     id="defs4395" />
  <sodipodi:namedview
     id="base"
     pagecolor="#ffffff"
     bordercolor="#666666"
     borderopacity="1.0"
     inkscape:pageopacity="0.0"
     inkscape:pageshadow="2"
     inkscape:zoom="0.35"
     inkscape:cx="498.77709"
     inkscape:cy="288.86479"
     inkscape:document-units="mm"
     inkscape:current-layer="layer1"
     showgrid="false"
     inkscape:window-width="1294"
     inkscape:window-height="704"
     inkscape:window-x="72"
     inkscape:window-y="27"
     inkscape:window-maximized="1" />
  <metadata
     id="metadata4398">
    <rdf:RDF>
      <cc:Work
         rdf:about="">
        <dc:format>image/svg+xml</dc:format>
        <dc:type
           rdf:resource="http://purl.org/dc/dcmitype/StillImage" />
        <dc:title></dc:title>
      </cc:Work>
    </rdf:RDF>
  </metadata>
  <g
     inkscape:label="Layer 1"
     inkscape:groupmode="layer"
     id="layer1"
     transform="translate(26.134769,-148.50124)">
    <g
       transform="matrix(0.35277777,0,0,-0.35277777,-93.294131,313.48129)"
       id="g4393">
      <path
         d="m 292.111,342.62 7.247,13.78 c 0,0 -8.531,2.46 -11.598,2.46 -3.068,0 -11.6,-2.46 -11.6,-2.46 l 7.249,-13.78 -9.425,-33.35 13.776,-30.45 13.774,30.45 -9.423,33.35"
         style="fill:#50ace4;fill-opacity:1;fill-rule:nonzero;stroke:none;stroke-width:0.1"
         id="path3990"
         inkscape:connector-curvature="0" />
      <path
         d="m 370.647,332.71 c 0,3.99 -3.18,7.98 -7.065,8.88 l -47.076,10.8 -28.746,-69.94 -28.747,69.94 -47.075,-10.8 c -3.887,-0.9 -7.066,-4.89 -7.066,-8.88 l -14.499,-75.39 c 0,-3.99 3.261,-7.25 7.249,-7.25 h 180.276 c 3.986,0 7.25,3.26 7.25,7.25 l -14.501,75.39"
         style="fill:#211c1d;fill-opacity:1;fill-rule:nonzero;stroke:none;stroke-width:0.1"
         id="path3992"
         inkscape:connector-curvature="0" />
      <path
         d="m 325.829,429.59 c 0,-21.03 -9.87,-59.22 -38.069,-59.22 -26.79,0 -38.069,38.19 -38.069,59.22 0,21.02 17.042,38.07 38.069,38.07 21.026,0 38.069,-17.05 38.069,-38.07"
         style="fill:#211c1d;fill-opacity:1;fill-rule:nonzero;stroke:none;stroke-width:0.1"
         id="path3994"
         inkscape:connector-curvature="0" />
      <path
         d="m 421.876,368.46 c 0.956,3.06 2.021,6.87 3.013,11.3 2.821,-0.85 5.175,-1.71 7,-2.44 -2.917,-3.39 -6.282,-6.38 -10.013,-8.86 z m -64.062,8.72 c 2.189,0.83 4.354,1.58 6.496,2.24 0.829,-3.55 1.842,-7.14 3.066,-10.75 -3.549,2.41 -6.758,5.28 -9.562,8.51 z m 9.725,72.7 c -0.941,-3.06 -1.976,-6.82 -2.935,-11.16 -2.799,0.85 -5.125,1.69 -6.914,2.4 2.874,3.34 6.182,6.3 9.849,8.76 z m 64.222,-8.61 c -2.157,-0.82 -4.293,-1.56 -6.405,-2.21 -0.803,3.49 -1.781,7.03 -2.966,10.58 3.473,-2.38 6.618,-5.2 9.371,-8.37 z m -3.335,-28.55 c -0.069,6.21 -0.577,12.73 -1.699,19.43 3.082,0.94 6.21,2.03 9.379,3.3 4.244,-6.67 6.918,-14.41 7.509,-22.73 z m -30.141,-21.66 v 14.66 h 22.902 c -0.275,-6.24 -0.966,-12.07 -1.849,-17.29 -5.971,1.34 -13.081,2.4 -21.053,2.63 z m -30.013,14.66 h 23.019 v -14.68 c -6.726,-0.23 -13.95,-1.1 -21.526,-2.89 -0.974,6.04 -1.421,11.93 -1.493,17.57 z m 23.019,21.68 v -14.68 h -22.919 c 0.255,6.25 0.931,12.08 1.801,17.32 5.978,-1.34 13.106,-2.41 21.118,-2.64 z m 6.994,0.02 c 6.748,0.23 13.991,1.09 21.593,2.88 0.952,-6.04 1.379,-11.94 1.432,-17.58 h -23.025 z m 14.754,27.22 c 2.438,-5.83 4.242,-11.68 5.529,-17.45 -7.141,-1.71 -13.949,-2.55 -20.283,-2.79 v 23.65 c 5.181,-0.37 10.14,-1.55 14.754,-3.41 z m -21.748,3.41 v -23.67 c -7.533,0.24 -14.225,1.25 -19.811,2.52 1.904,8.83 4.125,15.18 5.102,17.76 4.602,1.85 9.545,3.02 14.709,3.39 z m -37.895,-22.72 c 2.171,-0.93 5.513,-2.22 9.853,-3.5 -0.988,-5.74 -1.749,-12.18 -2.008,-19.11 h -15.279 c 0.587,8.27 3.233,15.98 7.434,22.61 z m -7.434,-29.61 h 15.195 c 0.088,-6.2 0.618,-12.72 1.762,-19.41 -3.105,-0.94 -6.255,-2.03 -9.451,-3.31 -4.241,6.66 -6.915,14.41 -7.506,22.72 z m 30.788,-42.01 c -2.49,5.87 -4.333,11.76 -5.651,17.57 7.109,1.7 13.884,2.54 20.192,2.77 v -23.66 c -5.102,0.37 -9.986,1.51 -14.541,3.32 z m 21.535,-3.32 v 23.69 c 7.489,-0.23 14.15,-1.24 19.726,-2.51 -2.022,-9.25 -4.372,-15.71 -5.205,-17.86 -4.549,-1.81 -9.427,-2.95 -14.521,-3.32 z m 37.897,22.72 c -2.226,0.96 -5.594,2.25 -9.924,3.53 1.001,5.72 1.781,12.15 2.061,19.08 h 15.296 c -0.588,-8.26 -3.234,-15.97 -7.433,-22.61 z m -41.393,82.07 c -30.857,0 -55.96,-25.1 -55.96,-55.96 0,-30.85 25.103,-55.96 55.96,-55.96 30.855,0 55.959,25.11 55.959,55.96 0,30.86 -25.104,55.96 -55.959,55.96"
         style="fill:#50ace4;fill-opacity:1;fill-rule:nonzero;stroke:none;stroke-width:0.1"
         id="path3996"
         inkscape:connector-curvature="0" />
    </g>
  </g>
</svg>
