<?xml version="1.0" encoding="UTF-8" standalone="no"?>
<!-- Created with Inkscape (http://www.inkscape.org/) -->

<svg
   xmlns:dc="http://purl.org/dc/elements/1.1/"
   xmlns:cc="http://creativecommons.org/ns#"
   xmlns:rdf="http://www.w3.org/1999/02/22-rdf-syntax-ns#"
   xmlns:svg="http://www.w3.org/2000/svg"
   xmlns="http://www.w3.org/2000/svg"
   xmlns:sodipodi="http://sodipodi.sourceforge.net/DTD/sodipodi-0.dtd"
   xmlns:inkscape="http://www.inkscape.org/namespaces/inkscape"
   width="102.92671mm"
   height="107.00145mm"
   viewBox="0 0 102.92671 107.00145"
   version="1.1"
   id="svg4401"
   inkscape:version="0.92.5 (2060ec1f9f, 2020-04-08)"
   sodipodi:docname="icon10.svg">
  <defs
     id="defs4395" />
  <sodipodi:namedview
     id="base"
     pagecolor="#ffffff"
     bordercolor="#666666"
     borderopacity="1.0"
     inkscape:pageopacity="0.0"
     inkscape:pageshadow="2"
     inkscape:zoom="0.35"
     inkscape:cx="-146.23481"
     inkscape:cy="115.23336"
     inkscape:document-units="mm"
     inkscape:current-layer="layer1"
     showgrid="false"
     inkscape:window-width="1294"
     inkscape:window-height="704"
     inkscape:window-x="72"
     inkscape:window-y="27"
     inkscape:window-maximized="1" />
  <metadata
     id="metadata4398">
    <rdf:RDF>
      <cc:Work
         rdf:about="">
        <dc:format>image/svg+xml</dc:format>
        <dc:type
           rdf:resource="http://purl.org/dc/dcmitype/StillImage" />
        <dc:title></dc:title>
      </cc:Work>
    </rdf:RDF>
  </metadata>
  <g
     inkscape:label="Layer 1"
     inkscape:groupmode="layer"
     id="layer1"
     transform="translate(-144.52463,-72.320721)">
    <g
       transform="matrix(0.35277777,0,0,-0.35277777,-399.61626,390.87684)"
       id="g4362">
      <g
         id="g3952"
         transform="scale(0.11256)">
        <path
           d="m 16281.5,5643.86 c 18.5,-18.48 18.5,-48.68 0,-67.16 l -235.1,-235.17 c -18.4,-18.48 -48.6,-18.48 -67.1,0 l -571.5,571.43 c -18.4,18.48 -18.4,48.69 0,67.16 l 235.1,235.17 c 18.5,18.39 48.8,18.39 67.3,0 l 571.3,-571.43"
           style="fill:#211c1d;fill-opacity:1;fill-rule:nonzero;stroke:none"
           id="path3954"
           inkscape:connector-curvature="0" />
      </g>
      <g
         id="g3956"
         transform="scale(0.108703)">
        <path
           d="m 16089.7,6488.41 -92.8,92.73 c 303.1,394.93 273.8,962.9 -87.7,1324.52 -90.3,90.25 -193.5,159.8 -303.8,208.65 v -196.23 c 51.8,-31.64 149,-125.94 193.8,-170.74 306,-305.97 257.7,-850.29 -48.3,-1156.27 -306,-305.97 -802,-305.97 -1108,0 -306,305.98 -354.3,850.3 -48.3,1156.27 49.6,49.59 152.5,147.19 210.5,180.59 v 193.64 c -116.5,-49.12 -225.6,-121.06 -320.5,-215.91 -393.4,-393.45 -393.4,-1031.25 0,-1424.61 361.5,-361.53 929.6,-390.79 1324.5,-87.76 l 92.8,-92.73 187.8,187.85"
           style="fill:#65686d;fill-opacity:1;fill-rule:nonzero;stroke:none"
           id="path3958"
           inkscape:connector-curvature="0" />
      </g>
      <g
         id="g3960"
         transform="scale(0.102023)">
        <path
           d="m 16228.9,7879.87 57.2,106.44 c 0,0 -66.1,19.8 -89.8,20 -23.9,0.19 -90.3,-18.43 -90.3,-18.43 l 55.4,-107.42 -75.4,-258.28 105,-237.3 109,235.54 -71.1,259.45"
           style="fill:#50ace4;fill-opacity:1;fill-rule:nonzero;stroke:none"
           id="path3962"
           inkscape:connector-curvature="0" />
      </g>
      <g
         id="g3964"
         transform="scale(0.105593)">
        <path
           d="m 15641.5,6704.97 c 413.7,0 581.2,249.83 658.5,523.62 l -31.3,305.6 c 0.2,29.93 -23.3,60.14 -52.4,67.05 l -352.4,84 -220,-522.85 -211.3,526.45 -353.7,-78.13 c -29.3,-6.44 -53.3,-36.18 -53.6,-66.01 l -36.5,-304.75 c 64.7,-276.53 271.5,-534.98 652.7,-534.98"
           style="fill:#211c1d;fill-opacity:1;fill-rule:nonzero;stroke:none"
           id="path3966"
           inkscape:connector-curvature="0" />
      </g>
      <g
         id="g3968"
         transform="scale(0.103261)">
        <path
           d="m 16298.7,8450.36 c -1.3,-161.25 -79.6,-453.61 -295.8,-451.77 -205.5,1.74 -289.6,295.36 -288.2,456.71 1.3,161.24 133.1,290.81 294.5,289.46 161.2,-1.26 290.8,-133.16 289.5,-294.4"
           style="fill:#211c1d;fill-opacity:1;fill-rule:nonzero;stroke:none"
           id="path3970"
           inkscape:connector-curvature="0" />
      </g>
    </g>
  </g>
</svg>
