<?xml version="1.0" encoding="UTF-8" standalone="no"?>
<!-- Created with Inkscape (http://www.inkscape.org/) -->

<svg
   xmlns:dc="http://purl.org/dc/elements/1.1/"
   xmlns:cc="http://creativecommons.org/ns#"
   xmlns:rdf="http://www.w3.org/1999/02/22-rdf-syntax-ns#"
   xmlns:svg="http://www.w3.org/2000/svg"
   xmlns="http://www.w3.org/2000/svg"
   xmlns:sodipodi="http://sodipodi.sourceforge.net/DTD/sodipodi-0.dtd"
   xmlns:inkscape="http://www.inkscape.org/namespaces/inkscape"
   width="102.20805mm"
   height="102.86103mm"
   viewBox="0 0 102.20804 102.86103"
   version="1.1"
   id="svg4401"
   inkscape:version="0.92.5 (2060ec1f9f, 2020-04-08)"
   sodipodi:docname="icon4.svg">
  <defs
     id="defs4395" />
  <sodipodi:namedview
     id="base"
     pagecolor="#ffffff"
     bordercolor="#666666"
     borderopacity="1.0"
     inkscape:pageopacity="0.0"
     inkscape:pageshadow="2"
     inkscape:zoom="0.35"
     inkscape:cx="-260.80076"
     inkscape:cy="-281.69964"
     inkscape:document-units="mm"
     inkscape:current-layer="layer1"
     showgrid="false"
     inkscape:window-width="1294"
     inkscape:window-height="704"
     inkscape:window-x="72"
     inkscape:window-y="27"
     inkscape:window-maximized="1" />
  <metadata
     id="metadata4398">
    <rdf:RDF>
      <cc:Work
         rdf:about="">
        <dc:format>image/svg+xml</dc:format>
        <dc:type
           rdf:resource="http://purl.org/dc/dcmitype/StillImage" />
        <dc:title></dc:title>
      </cc:Work>
    </rdf:RDF>
  </metadata>
  <g
     inkscape:label="Layer 1"
     inkscape:groupmode="layer"
     id="layer1"
     transform="translate(-174.83687,28.560723)">
    <g
       transform="matrix(0.35277777,0,0,-0.35277777,-369.66373,601.9534)"
       id="g4250">
      <g
         id="g3890"
         transform="scale(0.112467)">
        <path
           d="m 15290.6,13623.5 c -375,3.2 -676.4,309.7 -673.3,684.8 3.2,375 309.8,676.5 684.7,673.3 375.1,-3.1 676.6,-309.7 673.4,-684.7 -3.1,-375.1 -309.7,-676.5 -684.8,-673.4 z m 984.6,800.6 -121.8,38.1 c -7.4,39.7 -17.4,78.6 -30,116.3 l 90.1,94.5 c 9.8,10.4 12.1,29 5.1,41.5 l -94.9,167.4 c -7,12.4 -24.2,20.1 -38.2,16.9 l -127.6,-28.7 c -26,30.2 -53.9,58.7 -83.7,85.1 l 30.7,127.1 c 3.3,13.9 -4,31.2 -16.4,38.5 l -165.9,97.5 c -12.4,7.2 -31,5.2 -41.5,-4.5 l -96,-88.6 c -37.1,13.1 -75.5,23.6 -114.8,31.6 l -36,122.5 c -4,13.7 -19,25 -33.3,25.2 l -192.4,1.6 c -14.3,0.1 -29.6,-11 -33.8,-24.6 l -38.1,-121.9 c -39.7,-7.4 -78.6,-17.4 -116.3,-30 l -94.5,90.1 c -10.4,9.8 -29.1,12.1 -41.5,5.1 l -167.4,-94.9 c -12.5,-7 -20,-24.2 -16.9,-38.2 l 28.7,-127.6 c -30.3,-25.9 -58.6,-53.9 -85,-83.7 l -127.3,30.7 c -13.8,3.3 -31.1,-4 -38.4,-16.4 l -97.4,-165.9 c -7.3,-12.3 -5.3,-31 4.4,-41.5 l 88.6,-96 c -13.1,-37.1 -23.6,-75.5 -31.6,-114.8 l -122.4,-36 c -13.8,-4 -25.1,-19 -25.2,-33.3 l -1.7,-192.4 c -0.1,-14.3 11,-29.5 24.7,-33.8 l 121.9,-38 c 7.3,-39.8 17.3,-78.7 29.9,-116.4 l -90,-94.5 c -9.9,-10.4 -12.2,-29 -5.1,-41.5 l 94.8,-167.4 c 7.1,-12.4 24.2,-20 38.2,-16.9 l 127.6,28.7 c 26,-30.2 54,-58.6 83.8,-85.1 l -30.7,-127.1 c -3.4,-13.9 4,-31.2 16.3,-38.5 l 165.9,-97.4 c 12.3,-7.3 31,-5.2 41.6,4.5 l 95.8,88.5 c 37.3,-13 75.6,-23.6 114.9,-31.5 l 36,-122.5 c 4,-13.8 19,-25.1 33.3,-25.2 l 192.5,-1.6 c 14.2,-0.2 29.4,10.9 33.7,24.6 l 38,121.8 c 39.9,7.4 78.7,17.4 116.4,30 l 94.5,-90 c 10.3,-9.9 29,-12.2 41.5,-5.1 l 167.4,94.8 c 12.4,7.1 20.1,24.2 16.9,38.2 l -28.6,127.6 c 30.1,26 58.6,54 85,83.8 l 127.1,-30.7 c 14,-3.4 31.2,4 38.5,16.3 l 97.5,165.9 c 7.2,12.4 5.2,31.1 -4.6,41.6 l -88.5,95.9 c 13,37.2 23.6,75.5 31.5,114.8 l 122.6,36 c 13.6,4 25,19 25.1,33.3 l 1.6,192.5 c 0.2,14.3 -10.9,29.4 -24.6,33.7"
           style="fill:#65686d;fill-opacity:1;fill-rule:nonzero;stroke:none"
           id="path3892"
           inkscape:connector-curvature="0" />
      </g>
      <g
         id="g3894"
         transform="scale(0.106008)">
        <path
           d="m 16250.9,15086.6 39.6,73.6 c 0,0 -45.7,13.7 -62.2,13.8 -16.4,0.2 -62.3,-12.7 -62.3,-12.7 l 38.3,-74.3 -52.1,-178.6 72.5,-164 75.3,162.8 -49.1,179.4"
           style="fill:#50ace4;fill-opacity:1;fill-rule:nonzero;stroke:none"
           id="path3896"
           inkscape:connector-curvature="0" />
      </g>
      <g
         id="g3898"
         transform="scale(0.108689)">
        <path
           d="m 15823,14209.8 c 194.8,-1.6 368.3,91.4 477,236 l -39.2,213.4 c 0.2,20.8 -16.3,41.9 -36.6,46.7 l -245.9,58.7 -153.6,-364.9 -147.4,367.4 -246.9,-54.5 c -20.5,-4.5 -37.3,-25.3 -37.5,-46.1 l -42.7,-212.7 c 106.2,-146.5 278.1,-242.3 472.8,-244"
           style="fill:#211c1d;fill-opacity:1;fill-rule:nonzero;stroke:none"
           id="path3900"
           inkscape:connector-curvature="0" />
      </g>
      <g
         id="g3902"
         transform="scale(0.106898)">
        <path
           d="m 16299.1,15422.5 c -1,-111.9 -55.2,-314.8 -205.3,-313.5 -142.6,1.2 -200.9,205 -200,316.9 1,111.9 92.4,201.9 204.3,200.9 112,-0.9 201.9,-92.4 201,-204.3"
           style="fill:#211c1d;fill-opacity:1;fill-rule:nonzero;stroke:none"
           id="path3904"
           inkscape:connector-curvature="0" />
      </g>
      <g
         id="g3906"
         transform="scale(0.10965)">
        <path
           d="m 14572,15613.7 c -104.4,0.8 -188.4,86.2 -187.5,190.6 1,104.4 86.2,188.3 190.7,187.4 104.4,-0.9 188.3,-86.2 187.4,-190.6 -0.9,-104.4 -86.2,-188.3 -190.6,-187.4 z m 485.2,256.3 -95.7,30 c -9.1,36.3 -23.3,70.6 -41.5,102.3 l 48.1,88.2 c 3.8,6.9 2.4,17.1 -3.2,22.8 l -74.2,75.5 c -5.6,5.6 -15.8,7.2 -22.7,3.5 l -89,-46.6 c -31.4,18.8 -65.5,33.5 -101.6,43.2 l -28.4,96.3 c -2.2,7.5 -10.5,13.8 -18.3,13.8 l -105.9,0.9 c -7.9,0.1 -16.2,-6 -18.6,-13.5 l -29.9,-95.8 c -36.4,-9.1 -70.7,-23.2 -102.3,-41.5 l -88.2,48.1 c -7,3.8 -17.2,2.4 -22.8,-3.1 l -75.5,-74.3 c -5.7,-5.5 -7.2,-15.8 -3.6,-22.7 l 46.7,-89 c -18.9,-31.4 -33.6,-65.5 -43.2,-101.7 l -96.3,-28.2 c -7.6,-2.3 -13.8,-10.5 -13.9,-18.4 l -0.9,-105.9 c 0,-7.9 6,-16.3 13.6,-18.6 l 95.7,-29.9 c 9.2,-36.3 23.3,-70.7 41.5,-102.3 l -48.1,-88.2 c -3.8,-6.9 -2.3,-17.2 3.2,-22.8 l 74.2,-75.5 c 5.6,-5.6 15.8,-7.3 22.7,-3.6 l 89.1,46.7 c 31.3,-18.8 65.4,-33.5 101.6,-43.2 l 28.3,-96.3 c 2.2,-7.6 10.5,-13.8 18.3,-13.9 l 105.9,-0.9 c 7.9,0 16.3,6.1 18.6,13.6 l 29.9,95.8 c 36.4,9.1 70.7,23.2 102.3,41.5 l 88.2,-48.2 c 7,-3.8 17.2,-2.3 22.8,3.2 l 75.5,74.3 c 5.7,5.5 7.3,15.7 3.6,22.7 l -46.6,89 c 18.8,31.3 33.5,65.4 43.1,101.6 l 96.3,28.3 c 7.6,2.2 13.8,10.5 13.9,18.3 l 0.9,106 c 0.1,7.8 -6,16.2 -13.6,18.5"
           style="fill:#65686d;fill-opacity:1;fill-rule:nonzero;stroke:none"
           id="path3908"
           inkscape:connector-curvature="0" />
      </g>
    </g>
  </g>
</svg>
