<?xml version="1.0" encoding="UTF-8" standalone="no"?>
<!-- Created with Inkscape (http://www.inkscape.org/) -->

<svg
   xmlns:dc="http://purl.org/dc/elements/1.1/"
   xmlns:cc="http://creativecommons.org/ns#"
   xmlns:rdf="http://www.w3.org/1999/02/22-rdf-syntax-ns#"
   xmlns:svg="http://www.w3.org/2000/svg"
   xmlns="http://www.w3.org/2000/svg"
   xmlns:sodipodi="http://sodipodi.sourceforge.net/DTD/sodipodi-0.dtd"
   xmlns:inkscape="http://www.inkscape.org/namespaces/inkscape"
   width="120.21966mm"
   height="64.649033mm"
   viewBox="0 0 120.21965 64.649033"
   version="1.1"
   id="svg4401"
   inkscape:version="0.92.5 (2060ec1f9f, 2020-04-08)"
   sodipodi:docname="icon3.svg">
  <defs
     id="defs4395" />
  <sodipodi:namedview
     id="base"
     pagecolor="#ffffff"
     bordercolor="#666666"
     borderopacity="1.0"
     inkscape:pageopacity="0.0"
     inkscape:pageshadow="2"
     inkscape:zoom="0.35"
     inkscape:cx="60.335869"
     inkscape:cy="-350.36842"
     inkscape:document-units="mm"
     inkscape:current-layer="layer1"
     showgrid="false"
     inkscape:window-width="1294"
     inkscape:window-height="704"
     inkscape:window-x="72"
     inkscape:window-y="27"
     inkscape:window-maximized="1" />
  <metadata
     id="metadata4398">
    <rdf:RDF>
      <cc:Work
         rdf:about="">
        <dc:format>image/svg+xml</dc:format>
        <dc:type
           rdf:resource="http://purl.org/dc/dcmitype/StillImage" />
        <dc:title></dc:title>
      </cc:Work>
    </rdf:RDF>
  </metadata>
  <g
     inkscape:label="Layer 1"
     inkscape:groupmode="layer"
     id="layer1"
     transform="translate(-89.869468,8.5173365)">
    <g
       transform="matrix(0.35277777,0,0,-0.35277777,-291.10578,583.78484)"
       id="g4238">
      <path
         d="m 1148.12,1595.73 4.9,9.12 c 0,0 -5.66,1.69 -7.71,1.71 -2.04,0.02 -7.73,-1.58 -7.73,-1.58 l 4.75,-9.2 -6.46,-22.15 9,-20.34 9.33,20.19 -6.08,22.25"
         style="fill:#be1c2d;fill-opacity:1;fill-rule:nonzero;stroke:none;stroke-width:0.1"
         id="path3786"
         inkscape:connector-curvature="0" />
      <g
         id="g3788"
         transform="scale(0.103011)">
        <path
           d="m 11368.1,16050.8 c -1.1,-135.8 -67,-382 -249.1,-380.5 -173.1,1.5 -243.9,248.8 -242.8,384.7 1.1,135.8 112.2,245 248,243.9 135.9,-1.2 245,-112.2 243.9,-248.1"
           style="fill:#211c1d;fill-opacity:1;fill-rule:nonzero;stroke:none"
           id="path3790"
           inkscape:connector-curvature="0" />
      </g>
      <path
         d="m 1359.27,1593.95 4.9,9.13 c 0,0 -5.66,1.69 -7.7,1.71 -2.05,0.02 -7.74,-1.58 -7.74,-1.58 l 4.75,-9.21 -6.46,-22.14 9,-20.34 9.34,20.19 -6.09,22.24"
         style="fill:#35b43f;fill-opacity:1;fill-rule:nonzero;stroke:none;stroke-width:0.1"
         id="path3792"
         inkscape:connector-curvature="0" />
      <g
         id="g3794"
         transform="scale(0.102903)">
        <path
           d="m 13432.1,16050.6 c -1.1,-136 -67,-382.5 -249.4,-381 -173.3,1.5 -244.2,249.1 -243.1,385.1 1.2,136 112.4,245.3 248.3,244.2 136.1,-1.2 245.3,-112.3 244.2,-248.3"
           style="fill:#211c1d;fill-opacity:1;fill-rule:nonzero;stroke:none"
           id="path3796"
           inkscape:connector-curvature="0" />
      </g>
      <path
         d="m 1411.49,1586.92 c 0.02,2.66 -2.08,5.33 -4.66,5.95 l -31.27,7.45 -19.52,-46.39 -18.74,46.71 -31.39,-6.93 c -2.59,-0.57 -4.73,-3.21 -4.75,-5.86 l -1.81,-9 12.78,-3.04 c 6.49,-1.55 11.42,-7.54 11.8,-14.16 l 5.34,-29.05 86.58,-0.72 c 2.65,-0.03 4.84,2.13 4.86,4.78 l -9.22,50.26"
         style="fill:#211c1d;fill-opacity:1;fill-rule:nonzero;stroke:none;stroke-width:0.1"
         id="path3798"
         inkscape:connector-curvature="0" />
      <path
         d="m 1177.12,1562.88 c 0.49,6.61 5.52,12.52 12.03,13.96 l 12.84,2.83 -1.66,9.02 c 0.02,2.66 -2.07,5.33 -4.65,5.95 l -31.27,7.45 -19.52,-46.38 -18.74,46.7 -31.4,-6.92 c -2.59,-0.58 -4.72,-3.22 -4.75,-5.87 l -10.07,-50.1 c -0.02,-2.65 2.13,-4.84 4.78,-4.86 l 86.59,-0.73 5.82,28.95"
         style="fill:#211c1d;fill-opacity:1;fill-rule:nonzero;stroke:none;stroke-width:0.1"
         id="path3800"
         inkscape:connector-curvature="0" />
      <path
         d="m 1254,1569.08 5.8,10.79 c 0,0 -6.7,2 -9.11,2.02 -2.41,0.02 -9.14,-1.87 -9.14,-1.87 l 5.61,-10.88 -7.63,-26.17 10.63,-24.05 11.04,23.86 -7.2,26.3"
         style="fill:#50ace4;fill-opacity:1;fill-rule:nonzero;stroke:none;stroke-width:0.1"
         id="path3802"
         inkscape:connector-curvature="0" />
      <path
         d="m 1315.72,1560.77 c 0.03,3.13 -2.45,6.3 -5.5,7.02 l -36.96,8.81 -23.07,-54.83 -22.16,55.21 -37.1,-8.19 c -3.06,-0.67 -5.59,-3.79 -5.62,-6.93 l -11.9,-59.21 c -0.03,-3.14 2.52,-5.73 5.65,-5.75 l 141.82,-1.19 c 3.14,-0.03 5.72,2.51 5.75,5.65 l -10.91,59.41"
         style="fill:#211c1d;fill-opacity:1;fill-rule:nonzero;stroke:none;stroke-width:0.1"
         id="path3804"
         inkscape:connector-curvature="0" />
      <g
         id="g3806"
         transform="scale(0.102307)">
        <path
           d="m 12522.1,16003.5 c -1.4,-161.7 -79.7,-454.7 -296.5,-452.9 -206,1.7 -290.3,296.1 -288.9,457.8 1.4,161.6 133.5,291.6 295.2,290.3 161.6,-1.4 291.5,-133.6 290.2,-295.2"
           style="fill:#211c1d;fill-opacity:1;fill-rule:nonzero;stroke:none"
           id="path3808"
           inkscape:connector-curvature="0" />
      </g>
    </g>
  </g>
</svg>
