<?xml version="1.0" encoding="UTF-8" standalone="no"?>
<!-- Created with Inkscape (http://www.inkscape.org/) -->

<svg
   xmlns:dc="http://purl.org/dc/elements/1.1/"
   xmlns:cc="http://creativecommons.org/ns#"
   xmlns:rdf="http://www.w3.org/1999/02/22-rdf-syntax-ns#"
   xmlns:svg="http://www.w3.org/2000/svg"
   xmlns="http://www.w3.org/2000/svg"
   xmlns:sodipodi="http://sodipodi.sourceforge.net/DTD/sodipodi-0.dtd"
   xmlns:inkscape="http://www.inkscape.org/namespaces/inkscape"
   width="108.99776mm"
   height="103.11341mm"
   viewBox="0 0 108.99776 103.11341"
   version="1.1"
   id="svg4401"
   inkscape:version="0.92.5 (2060ec1f9f, 2020-04-08)"
   sodipodi:docname="icon12.svg">
  <defs
     id="defs4395" />
  <sodipodi:namedview
     id="base"
     pagecolor="#ffffff"
     bordercolor="#666666"
     borderopacity="1.0"
     inkscape:pageopacity="0.0"
     inkscape:pageshadow="2"
     inkscape:zoom="0.35"
     inkscape:cx="13.32854"
     inkscape:cy="320.86766"
     inkscape:document-units="mm"
     inkscape:current-layer="layer1"
     showgrid="false"
     inkscape:window-width="1294"
     inkscape:window-height="704"
     inkscape:window-x="72"
     inkscape:window-y="27"
     inkscape:window-maximized="1" />
  <metadata
     id="metadata4398">
    <rdf:RDF>
      <cc:Work
         rdf:about="">
        <dc:format>image/svg+xml</dc:format>
        <dc:type
           rdf:resource="http://purl.org/dc/dcmitype/StillImage" />
        <dc:title></dc:title>
      </cc:Work>
    </rdf:RDF>
  </metadata>
  <g
     inkscape:label="Layer 1"
     inkscape:groupmode="layer"
     id="layer1"
     transform="translate(-102.30683,-130.61617)">
    <g
       transform="matrix(0.35277777,0,0,-0.35277777,-284.28115,308.77247)"
       id="g4379">
      <path
         d="m 1362.34,431.61 -26.22,-2.89 c -2.14,-0.24 -2.45,-1.44 -0.68,-2.68 l 7.14,-4.96 c 0.01,-0.01 0.03,-0.03 0.05,-0.04 l -42.16,-27.98 v 26.3 c 0,1.56 -0.86,3 -2.24,3.74 -1.39,0.73 -3.06,0.65 -4.36,-0.23 l -59.96,-40.42 c -1.94,-1.3 -2.45,-3.93 -1.14,-5.87 0.81,-1.21 2.15,-1.87 3.51,-1.87 0.81,0 1.64,0.24 2.36,0.73 l 53.36,35.97 v -26.24 c 0,-1.55 0.86,-2.99 2.24,-3.72 1.37,-0.74 3.04,-0.66 4.34,0.2 l 48.19,31.99 1.34,-7.21 c 0.4,-2.12 1.62,-2.34 2.72,-0.48 l 13.42,22.71 c 1.09,1.86 0.24,3.19 -1.91,2.95"
         style="fill:#50ace4;fill-opacity:1;fill-rule:nonzero;stroke:none;stroke-width:0.1"
         id="path3998"
         inkscape:connector-curvature="0" />
      <path
         d="m 1142.11,451.23 3.12,5.92 c 0,0 -3.67,1.07 -4.98,1.07 -1.33,0 -5,-1.07 -5,-1.07 l 3.12,-5.92 -4.05,-14.34 5.93,-13.1 5.92,13.1 -4.06,14.34"
         style="fill:#be1c2d;fill-opacity:1;fill-rule:nonzero;stroke:none;stroke-width:0.1"
         id="path4000"
         inkscape:connector-curvature="0" />
      <path
         d="m 1156.62,488.63 c 0,-9.04 -4.25,-25.47 -16.37,-25.47 -11.53,0 -16.38,16.43 -16.38,25.47 0,9.05 7.33,16.38 16.38,16.38 9.04,0 16.37,-7.33 16.37,-16.38"
         style="fill:#211c1d;fill-opacity:1;fill-rule:nonzero;stroke:none;stroke-width:0.1"
         id="path4002"
         inkscape:connector-curvature="0" />
      <path
         d="m 1195.32,488.72 v -21.17 h 8.95 V 424.4 l 8.46,3.76 v 39.39 h 174.67 v -128.6 h -174.67 v 40.54 l -8.46,-3.76 v -41.01 c 0,-2.34 1.89,-4.23 4.23,-4.23 h 69.42 l -45.26,-111.95 c -0.87,-2.17 0.17,-4.64 2.34,-5.51 0.52,-0.21 1.06,-0.31 1.58,-0.31 1.68,0 3.27,1 3.93,2.65 l 46.54,115.12 h 26.03 l 46.54,-115.12 c 0.66,-1.65 2.25,-2.65 3.92,-2.65 0.53,0 1.07,0.1 1.59,0.31 2.16,0.87 3.21,3.34 2.34,5.51 l -45.26,111.95 h 69.42 c 2.34,0 4.23,1.89 4.23,4.23 v 132.83 h 8.95 v 21.17 h -209.49"
         style="fill:#65686d;fill-opacity:1;fill-rule:nonzero;stroke:none;stroke-width:0.1"
         id="path4004"
         inkscape:connector-curvature="0" />
      <path
         d="m 1239.17,417.96 c -3.06,6 -10.39,8.36 -16.38,5.31 l -25.25,-12.8 -22.62,35.67 c -1.69,2.68 -22.31,9.29 -22.31,9.29 l -12.36,-30.08 -12.37,30.08 c 0,0 -23.27,-6.92 -26.32,-7.95 -4.1,-1.38 -5.73,-4.98 -5.72,-8.15 v -79.36 c 0.02,-6.73 5.48,-12.17 12.21,-12.14 0.44,0 0.88,0.03 1.3,0.07 V 230.36 c 0,-7.41 3.19,-13.41 10.6,-13.41 7.4,0 10.59,6 10.59,13.41 l 6.97,108.01 h 5.47 l 6.97,-108.01 c 0,-7.41 3.19,-13.41 10.59,-13.41 7.4,0 10.59,6 10.59,13.41 l -0.01,176.89 11.96,-19.01 c 1.96,-3.12 5.05,-5.08 8.37,-5.63 1.3,-0.47 2.76,-0.49 4.12,0.06 1.41,0.27 38.18,19.11 38.18,19.11 5.99,3.06 8.48,10.18 5.42,16.18"
         style="fill:#211c1d;fill-opacity:1;fill-rule:nonzero;stroke:none;stroke-width:0.1"
         id="path4006"
         inkscape:connector-curvature="0" />
    </g>
  </g>
</svg>
