<?xml version="1.0" encoding="UTF-8" standalone="no"?>
<!-- Created with Inkscape (http://www.inkscape.org/) -->

<svg
   xmlns:dc="http://purl.org/dc/elements/1.1/"
   xmlns:cc="http://creativecommons.org/ns#"
   xmlns:rdf="http://www.w3.org/1999/02/22-rdf-syntax-ns#"
   xmlns:svg="http://www.w3.org/2000/svg"
   xmlns="http://www.w3.org/2000/svg"
   xmlns:sodipodi="http://sodipodi.sourceforge.net/DTD/sodipodi-0.dtd"
   xmlns:inkscape="http://www.inkscape.org/namespaces/inkscape"
   width="90.045883mm"
   height="104.52695mm"
   viewBox="0 0 90.045873 104.52695"
   version="1.1"
   id="svg4401"
   inkscape:version="0.92.5 (2060ec1f9f, 2020-04-08)"
   sodipodi:docname="icon8.svg">
  <defs
     id="defs4395" />
  <sodipodi:namedview
     id="base"
     pagecolor="#ffffff"
     bordercolor="#666666"
     borderopacity="1.0"
     inkscape:pageopacity="0.0"
     inkscape:pageshadow="2"
     inkscape:zoom="0.35"
     inkscape:cx="-209.95047"
     inkscape:cy="-41.834092"
     inkscape:document-units="mm"
     inkscape:current-layer="layer1"
     showgrid="false"
     inkscape:window-width="1294"
     inkscape:window-height="704"
     inkscape:window-x="72"
     inkscape:window-y="27"
     inkscape:window-maximized="1" />
  <metadata
     id="metadata4398">
    <rdf:RDF>
      <cc:Work
         rdf:about="">
        <dc:format>image/svg+xml</dc:format>
        <dc:type
           rdf:resource="http://purl.org/dc/dcmitype/StillImage" />
        <dc:title></dc:title>
      </cc:Work>
    </rdf:RDF>
  </metadata>
  <g
     inkscape:label="Layer 1"
     inkscape:groupmode="layer"
     id="layer1"
     transform="translate(-161.38273,-33.237793)">
    <g
       transform="matrix(0.35277777,0,0,-0.35277777,-389.1995,520.62864)"
       id="g4274">
      <g
         id="g3842"
         transform="scale(0.102569)">
        <path
           d="m 16208.2,11483.4 70.5,134.3 c 0,0 -83.1,24 -113,24 -29.9,0 -113.1,-24 -113.1,-24 l 70.6,-134.3 -91.8,-325.2 134.3,-296.8 134.3,296.8 -91.8,325.2"
           style="fill:#50ace4;fill-opacity:1;fill-rule:nonzero;stroke:none"
           id="path3844"
           inkscape:connector-curvature="0" />
      </g>
      <g
         id="g3846"
         transform="scale(0.107698)">
        <path
           d="m 16165.4,10844.5 c 0,37 -29.6,74 -65.6,82.3 l -437.1,100.4 -267,-649.5 -266.8,649.5 -437.2,-100.4 c -36,-8.3 -65.5,-45.3 -65.5,-82.3 l -134.7,-700.1 c 0,-37 30.3,-67.3 67.3,-67.3 h 1673.9 c 37,0 67.3,30.3 67.3,67.3 l -134.6,700.1"
           style="fill:#211c1d;fill-opacity:1;fill-rule:nonzero;stroke:none"
           id="path3848"
           inkscape:connector-curvature="0" />
      </g>
      <g
         id="g3850"
         transform="scale(0.104059)">
        <path
           d="m 16300,12154.7 c 0,-202.1 -94.9,-569.1 -365.9,-569.1 -257.4,0 -365.7,367 -365.7,569.1 0,202 163.7,365.8 365.7,365.8 202.1,0 365.9,-163.8 365.9,-365.8"
           style="fill:#211c1d;fill-opacity:1;fill-rule:nonzero;stroke:none"
           id="path3852"
           inkscape:connector-curvature="0" />
      </g>
      <g
         id="g3854"
         transform="scale(0.109083)">
        <path
           d="m 16300,12004 c 0,169.1 -137.1,306.3 -306.2,306.3 -169.1,0 -306.3,-137.2 -306.3,-306.3 0,-109.9 85.9,-179.9 135.6,-268.6 29.4,-52.2 49,-108.7 63.9,-162.5 5.1,-18.1 24.6,-32.9 43.4,-32.9 h 126.8 c 18.8,0 38.4,14.8 43.3,32.9 0,0 30.1,105.7 64.5,164.5 53.9,92.1 135,152.3 135,266.6"
           style="fill:#f9de0c;fill-opacity:1;fill-rule:nonzero;stroke:none"
           id="path3856"
           inkscape:connector-curvature="0" />
      </g>
      <g
         id="g3862"
         transform="scale(0.107812)">
        <path
           d="m 16300,11572.5 c 0,-23.9 -1.7,-43.2 -20.8,-43.2 h -193.7 c -19.1,0 -20.8,19.3 -20.8,43.2 v 0 c 0,23.9 1.7,43.3 20.8,43.3 h 193.7 c 19.1,0 20.8,-19.4 20.8,-43.3 v 0"
           style="fill:#211c1d;fill-opacity:1;fill-rule:nonzero;stroke:none"
           id="path3864"
           inkscape:connector-curvature="0" />
      </g>
      <g
         id="g3866"
         transform="scale(0.107561)">
        <path
           d="m 16300,11541.9 c 0,-44.1 -35.7,-79.8 -79.8,-79.8 -44,0 -79.8,35.7 -79.8,79.8 v 30.6 h 159.6 v -30.6"
           style="fill:#211c1d;fill-opacity:1;fill-rule:nonzero;stroke:none"
           id="path3868"
           inkscape:connector-curvature="0" />
      </g>
      <g
         id="g3870"
         transform="scale(0.107168)">
        <path
           d="m 16300,12639.5 c 0,77.5 0,155 0,232.5 0,26.3 -40.8,26.3 -40.8,0 0,-77.5 0,-155 0,-232.5 0,-26.3 40.8,-26.3 40.8,0 v 0"
           style="fill:#f9de0c;fill-opacity:1;fill-rule:nonzero;stroke:none"
           id="path3872"
           inkscape:connector-curvature="0" />
      </g>
      <g
         id="g3874"
         transform="scale(0.109963)">
        <path
           d="m 16147,12219.1 c 45.9,60.1 91.7,120.1 137.4,180.2 15.6,20.4 -19,40.2 -34.3,20.1 -45.8,-60.1 -91.6,-120.2 -137.4,-180.2 -15.6,-20.4 19,-40.2 34.3,-20.1 v 0"
           style="fill:#f9de0c;fill-opacity:1;fill-rule:nonzero;stroke:none"
           id="path3876"
           inkscape:connector-curvature="0" />
      </g>
      <g
         id="g3878"
         transform="scale(0.105474)">
        <path
           d="m 16283.8,12760.1 c -47.7,62.6 -95.5,125.2 -143.3,187.8 -15.9,21 -51.9,0.4 -35.7,-20.9 47.8,-62.6 95.5,-125.2 143.2,-187.8 16,-21 52,-0.4 35.8,20.9 v 0"
           style="fill:#f9de0c;fill-opacity:1;fill-rule:nonzero;stroke:none"
           id="path3880"
           inkscape:connector-curvature="0" />
      </g>
      <g
         id="g3882"
         transform="scale(0.104442)">
        <path
           d="m 16274.4,12673.6 c -75.5,24.7 -151.2,49.4 -226.8,74.1 -25.6,8.4 -36.7,-32.1 -11.1,-40.4 75.6,-24.7 151.2,-49.4 226.8,-74.1 25.8,-8.4 36.7,32.1 11.1,40.4 v 0"
           style="fill:#f9de0c;fill-opacity:1;fill-rule:nonzero;stroke:none"
           id="path3884"
           inkscape:connector-curvature="0" />
      </g>
      <g
         id="g3886"
         transform="scale(0.111479)">
        <path
           d="m 16063.5,11835.8 c 70.9,23.1 141.7,46.2 212.5,69.4 24,7.8 13.7,45.7 -10.4,37.8 -70.8,-23.1 -141.6,-46.3 -212.5,-69.4 -23.9,-7.8 -13.7,-45.7 10.4,-37.8 v 0"
           style="fill:#f9de0c;fill-opacity:1;fill-rule:nonzero;stroke:none"
           id="path3888"
           inkscape:connector-curvature="0" />
      </g>
    </g>
  </g>
</svg>
