<?xml version="1.0" encoding="UTF-8" standalone="no"?>
<!-- Created with Inkscape (http://www.inkscape.org/) -->

<svg
   xmlns:dc="http://purl.org/dc/elements/1.1/"
   xmlns:cc="http://creativecommons.org/ns#"
   xmlns:rdf="http://www.w3.org/1999/02/22-rdf-syntax-ns#"
   xmlns:svg="http://www.w3.org/2000/svg"
   xmlns="http://www.w3.org/2000/svg"
   xmlns:sodipodi="http://sodipodi.sourceforge.net/DTD/sodipodi-0.dtd"
   xmlns:inkscape="http://www.inkscape.org/namespaces/inkscape"
   width="109.1946mm"
   height="89.702324mm"
   viewBox="0 0 109.1946 89.702324"
   version="1.1"
   id="svg4401"
   inkscape:version="0.92.5 (2060ec1f9f, 2020-04-08)"
   sodipodi:docname="icon2.svg">
  <defs
     id="defs4395" />
  <sodipodi:namedview
     id="base"
     pagecolor="#ffffff"
     bordercolor="#666666"
     borderopacity="1.0"
     inkscape:pageopacity="0.0"
     inkscape:pageshadow="2"
     inkscape:zoom="0.35"
     inkscape:cx="316.00626"
     inkscape:cy="-318.25411"
     inkscape:document-units="mm"
     inkscape:current-layer="layer1"
     showgrid="false"
     inkscape:window-width="1294"
     inkscape:window-height="704"
     inkscape:window-x="72"
     inkscape:window-y="27"
     inkscape:window-maximized="1" />
  <metadata
     id="metadata4398">
    <rdf:RDF>
      <cc:Work
         rdf:about="">
        <dc:format>image/svg+xml</dc:format>
        <dc:type
           rdf:resource="http://purl.org/dc/dcmitype/StillImage" />
        <dc:title></dc:title>
      </cc:Work>
    </rdf:RDF>
  </metadata>
  <g
     inkscape:label="Layer 1"
     inkscape:groupmode="layer"
     id="layer1"
     transform="translate(-22.223343,25.073719)">
    <g
       transform="matrix(0.35277777,0,0,-0.35277777,-195.63598,592.28184)"
       id="g4224">
      <g
         id="g4204">
        <g
           transform="scale(0.104003)"
           id="g3748">
          <path
             inkscape:connector-curvature="0"
             id="path3750"
             style="fill:#50ace4;fill-opacity:1;fill-rule:nonzero;stroke:none"
             d="m 7447,16221.4 35.06,66.7 c 0,0 -41.27,11.9 -56.11,11.9 -14.84,0 -56.11,-11.9 -56.11,-11.9 l 35.07,-66.7 -45.59,-161.3 66.63,-147.3 66.63,147.3 -45.58,161.3" />
        </g>
        <g
           transform="scale(0.103803)"
           id="g3752">
          <path
             inkscape:connector-curvature="0"
             id="path3754"
             style="fill:#211c1d;fill-opacity:1;fill-rule:nonzero;stroke:none"
             d="m 7841.96,16204.6 c 0,19.4 -15.4,38.7 -34.23,43 l -228.16,52.4 -139.33,-339 -139.32,339 -228.17,-52.4 c -18.83,-4.3 -34.23,-23.6 -34.23,-43 l -70.28,-365.4 c 0,-19.3 15.81,-35.1 35.13,-35.1 h 873.75 c 19.32,0 35.12,15.8 35.12,35.1 l -70.28,365.4" />
        </g>
        <g
           transform="scale(0.107361)"
           id="g3756">
          <path
             inkscape:connector-curvature="0"
             id="path3758"
             style="fill:#211c1d;fill-opacity:1;fill-rule:nonzero;stroke:none"
             d="m 7372.07,16121.6 c 0,-98.5 -46.24,-277.5 -178.39,-277.5 -125.53,0 -178.4,179 -178.4,277.5 0,98.5 79.89,178.4 178.4,178.4 98.53,0 178.39,-79.9 178.39,-178.4" />
        </g>
      </g>
      <g
         id="g4191">
        <path
           inkscape:connector-curvature="0"
           id="path3760"
           style="fill:#be1c2d;fill-opacity:1;fill-rule:nonzero;stroke:none;stroke-width:0.1"
           d="m 668.739,1542.27 3.646,6.93 c 0,0 -4.292,1.24 -5.836,1.24 -1.542,0 -5.834,-1.24 -5.834,-1.24 l 3.647,-6.93 -4.742,-16.78 6.929,-15.32 6.931,15.32 -4.741,16.78" />
        <path
           inkscape:connector-curvature="0"
           id="path3762"
           style="fill:#211c1d;fill-opacity:1;fill-rule:nonzero;stroke:none;stroke-width:0.1"
           d="m 708.251,1537.29 c 0,2 -1.6,4.01 -3.556,4.46 l -23.682,5.43 -14.464,-35.18 -14.462,35.18 -23.683,-5.43 c -1.955,-0.45 -3.554,-2.46 -3.554,-4.46 l -7.296,-37.94 c 0,-2 1.642,-3.64 3.648,-3.64 h 90.695 c 2.007,0 3.648,1.64 3.648,3.64 l -7.294,37.94" />
        <path
           inkscape:connector-curvature="0"
           id="path3764"
           style="fill:#211c1d;fill-opacity:1;fill-rule:nonzero;stroke:none;stroke-width:0.1"
           d="m 685.702,1586.02 c 0,-10.58 -4.965,-29.79 -19.153,-29.79 -13.477,0 -19.152,19.21 -19.152,29.79 0,10.58 8.576,19.15 19.152,19.15 10.579,0 19.153,-8.57 19.153,-19.15" />
      </g>
      <g
         id="g4196">
        <path
           inkscape:connector-curvature="0"
           id="path3766"
           style="fill:#35b43f;fill-opacity:1;fill-rule:nonzero;stroke:none;stroke-width:0.1"
           d="m 880.276,1542.27 3.647,6.93 c 0,0 -4.292,1.24 -5.837,1.24 -1.542,0 -5.834,-1.24 -5.834,-1.24 l 3.647,-6.93 -4.742,-16.78 6.929,-15.32 6.93,15.32 -4.74,16.78" />
        <path
           inkscape:connector-curvature="0"
           id="path3768"
           style="fill:#211c1d;fill-opacity:1;fill-rule:nonzero;stroke:none;stroke-width:0.1"
           d="m 919.786,1537.29 c 0,2 -1.598,4.01 -3.554,4.46 l -23.681,5.43 -14.465,-35.18 -14.461,35.18 -23.684,-5.43 c -1.955,-0.45 -3.555,-2.46 -3.555,-4.46 l -7.295,-37.94 c 0,-2 1.642,-3.64 3.647,-3.64 h 90.697 c 2.006,0 3.647,1.64 3.647,3.64 l -7.296,37.94" />
        <path
           inkscape:connector-curvature="0"
           id="path3770"
           style="fill:#211c1d;fill-opacity:1;fill-rule:nonzero;stroke:none;stroke-width:0.1"
           d="m 897.239,1586.02 c 0,-10.58 -4.965,-29.79 -19.153,-29.79 -13.477,0 -19.152,19.21 -19.152,29.79 0,10.58 8.576,19.15 19.152,19.15 10.579,0 19.153,-8.57 19.153,-19.15" />
      </g>
      <path
         d="m 772.318,1564.6 c -1.931,0 -3.497,1.57 -3.497,3.5 v 50.85 c 0,1.94 1.566,3.5 3.497,3.5 1.932,0 3.498,-1.56 3.498,-3.5 v -50.85 c 0,-1.93 -1.566,-3.5 -3.498,-3.5"
         style="fill:#65686d;fill-opacity:1;fill-rule:nonzero;stroke:none;stroke-width:0.1"
         id="path3772"
         inkscape:connector-curvature="0" />
      <path
         d="m 731.775,1535.86 c -1.095,0 -2.174,0.52 -2.856,1.48 -1.117,1.57 -0.745,3.76 0.831,4.87 l 40.545,28.74 c 1.576,1.12 3.76,0.75 4.876,-0.83 1.118,-1.57 0.745,-3.76 -0.83,-4.87 l -40.546,-28.74 c -0.613,-0.44 -1.32,-0.65 -2.02,-0.65"
         style="fill:#65686d;fill-opacity:1;fill-rule:nonzero;stroke:none;stroke-width:0.1"
         id="path3774"
         inkscape:connector-curvature="0" />
      <path
         d="m 812.86,1535.86 c -0.699,0 -1.404,0.21 -2.018,0.65 l -40.547,28.74 c -1.575,1.11 -1.947,3.3 -0.83,4.87 1.117,1.58 3.301,1.95 4.876,0.83 l 40.545,-28.74 c 1.576,-1.11 1.948,-3.3 0.831,-4.87 -0.682,-0.96 -1.761,-1.48 -2.857,-1.48"
         style="fill:#65686d;fill-opacity:1;fill-rule:nonzero;stroke:none;stroke-width:0.1"
         id="path3776"
         inkscape:connector-curvature="0" />
    </g>
  </g>
</svg>
